<svg xmlns="http://www.w3.org/2000/svg" xmlns:v="https://svgstorm.com"
viewBox = "0 0 953 200"
width="953"
height="200">
<g fill="None" fill-opacity="0.0" stroke="#000000" stroke-opacity="0.00" stroke-width="0.3"><path d="
M 0.00 200.00 
L 953.00 200.00
L 953.00 28.00
C 946.36 39.65 935.67 50.39 929.25 62.25 C 922.82 74.10 909.57 83.72 905.70 96.70 C 901.82 109.67 914.24 126.36 916.93 140.07 C 919.62 153.79 929.27 169.61 931.00 184.00
C 919.00 184.00 907.00 184.00 895.00 184.00
C 889.13 162.41 881.38 141.43 875.00 120.00
C 871.36 129.05 872.86 140.42 870.01 150.01 C 867.16 159.60 867.72 170.77 864.07 180.07 C 860.42 189.37 840.47 181.25 832.00 184.00
C 837.63 130.67 850.98 79.27 857.00 26.00
C 867.25 23.65 872.69 26.47 883.02 25.98 C 893.36 25.48 889.37 38.98 888.00 47.00 C 886.64 55.03 884.83 64.89 883.00 73.00
C 882.97 73.32 883.90 74.09 884.00 74.00
C 893.40 60.93 900.59 52.28 908.77 37.77 C 916.95 23.26 936.69 21.69 953.00 27.00
L 953.00 0.00
L 0.00 0.00
L 0.00 200.00
M 117.00 1.00 
C 120.01 2.85 117.50 9.68 113.75 8.20 C 110.00 6.71 112.50 -1.77 117.00 1.00
M 133.00 4.00 
C 138.65 6.76 133.23 17.49 127.33 13.67 C 121.43 9.85 126.92 1.03 133.00 4.00
M 82.00 5.00 
C 98.21 9.92 87.92 39.44 71.98 32.02 C 56.03 24.61 64.74 -0.24 82.00 5.00
M 49.00 14.00 
C 62.95 18.23 53.95 43.91 39.78 37.22 C 25.61 30.53 33.34 9.25 49.00 14.00
M 115.00 14.00 
C 128.83 18.37 120.06 43.79 105.78 37.22 C 91.50 30.66 99.34 9.05 115.00 14.00
M 153.00 14.00 
C 162.16 17.05 155.63 35.30 145.93 30.07 C 136.22 24.84 141.67 10.22 153.00 14.00
M 444.00 22.00 
C 466.23 22.95 481.94 41.45 479.35 62.69 C 476.77 83.94 476.16 108.64 470.07 128.07 C 463.99 147.51 462.95 169.30 444.75 180.75 C 426.56 192.21 403.01 191.84 387.25 176.75 C 371.48 161.67 376.07 133.60 379.33 113.33 C 382.59 93.06 386.75 70.19 394.92 50.92 C 403.10 31.66 423.03 21.10 444.00 22.00
M 825.00 51.00 
C 825.31 54.25 825.46 57.76 825.00 61.00
C 824.09 67.40 825.17 80.99 821.07 86.07 C 816.98 91.16 801.74 88.65 795.00 88.00 C 788.26 87.35 789.85 73.95 793.78 67.78 C 797.70 61.60 788.91 46.41 781.32 53.32 C 773.74 60.23 776.17 66.91 773.02 75.02 C 769.88 83.14 769.59 90.54 768.00 99.00 C 766.41 107.46 763.04 115.11 763.07 124.07 C 763.11 133.04 759.27 140.91 761.99 150.01 C 764.72 159.11 777.89 152.08 779.77 145.77 C 781.65 139.46 781.15 125.71 786.26 122.26 C 791.36 118.80 805.67 121.35 812.67 122.33 C 819.67 123.31 815.49 139.36 814.02 145.02 C 812.56 150.69 810.60 162.36 807.07 168.07 C 803.55 173.79 799.78 180.04 792.77 182.77 C 785.76 185.50 775.08 187.16 767.00 187.00 C 758.92 186.84 750.37 185.69 743.75 181.25 C 737.14 176.80 732.53 172.90 730.22 164.78 C 727.92 156.65 729.14 145.41 729.98 136.98 C 730.81 128.54 731.15 119.16 733.00 111.00 C 734.84 102.83 735.89 93.41 737.33 85.33 C 738.77 77.25 740.70 69.50 742.98 61.98 C 745.25 54.45 747.47 46.71 750.92 39.92 C 754.38 33.14 759.41 28.72 766.69 25.69 C 773.98 22.67 784.80 22.17 793.00 23.00 C 801.20 23.83 810.02 24.40 816.75 29.25 C 823.47 34.11 825.74 43.09 825.00 51.00
M 337.00 101.00 
C 343.66 105.53 350.38 109.69 352.78 118.22 C 355.17 126.76 355.43 137.25 353.02 146.02 C 350.62 154.80 349.32 163.12 343.23 170.23 C 337.14 177.34 330.99 180.83 321.99 182.99 C 313.00 185.16 303.62 184.86 293.98 184.02 C 284.33 183.19 272.47 185.77 262.00 184.00 C 251.53 182.23 259.94 167.03 260.78 158.78 C 261.62 150.53 264.14 138.57 265.78 129.78 C 267.42 120.99 269.12 111.18 270.99 101.99 C 272.86 92.81 275.13 83.33 276.78 73.78 C 278.43 64.23 279.92 54.19 281.33 44.33 C 282.73 34.46 283.76 23.05 296.00 25.00 C 308.24 26.95 318.05 24.13 329.00 25.00 C 339.95 25.87 346.72 26.75 354.25 33.75 C 361.77 40.75 363.21 48.98 362.07 58.07 C 360.93 67.17 360.53 78.12 355.69 85.69 C 350.86 93.26 345.05 98.30 337.00 101.00
M 549.00 26.00 
C 544.61 68.25 532.33 109.47 529.00 153.00
C 536.72 155.38 547.59 149.83 555.00 153.00 C 562.41 156.17 553.80 166.37 555.01 174.01 C 556.22 181.65 546.22 186.12 538.93 184.93 C 531.64 183.73 520.04 184.95 513.00 184.00 C 505.96 183.05 493.50 188.88 489.10 182.90 C 484.70 176.92 492.50 167.89 491.93 160.93 C 491.35 153.96 494.52 146.01 495.98 138.98 C 497.43 131.94 497.92 123.10 499.93 115.93 C 501.93 108.76 501.83 100.18 504.00 93.00 C 506.17 85.81 507.03 77.41 508.00 70.00 C 508.97 62.59 510.49 56.60 511.98 48.98 C 513.46 41.35 514.37 33.59 516.00 26.00
C 526.65 24.28 537.76 26.97 549.00 26.00
M 602.00 58.00 
C 593.05 57.97 585.52 57.85 577.00 57.00
C 574.83 46.86 580.22 43.87 580.92 32.92 C 581.63 21.98 596.74 25.07 606.00 25.00 C 615.26 24.93 630.52 25.20 639.00 25.00 C 647.48 24.80 665.62 22.92 664.22 31.22 C 662.81 39.52 664.23 53.66 657.77 57.77 C 651.31 61.87 635.41 52.16 635.22 64.22 C 635.04 76.28 631.03 81.30 630.02 92.02 C 629.02 102.75 625.21 108.59 624.07 119.07 C 622.94 129.56 621.01 135.31 619.22 146.22 C 617.43 157.14 615.01 161.16 614.00 174.00 C 612.99 186.84 603.14 181.97 591.00 184.00 C 578.86 186.03 579.05 176.12 582.00 166.00 C 584.94 155.87 584.40 149.41 586.78 139.78 C 589.16 130.15 589.42 123.13 591.98 113.98 C 594.54 104.82 595.07 95.56 597.33 86.33 C 599.59 77.10 600.67 67.51 602.00 58.00
M 721.00 28.00 
C 719.95 37.14 717.13 45.94 716.07 55.07 C 715.02 64.20 712.81 73.18 711.07 82.07 C 709.33 90.97 708.80 100.56 706.07 109.07 C 703.35 117.59 703.37 128.45 702.00 137.00 C 700.63 145.56 697.67 156.05 697.07 164.07 C 696.48 172.09 694.64 186.64 686.00 185.00 C 677.36 183.36 661.44 188.21 659.03 179.97 C 656.62 171.74 663.88 161.56 663.98 152.98 C 664.07 144.39 668.03 134.75 668.98 125.98 C 669.93 117.21 671.84 107.38 673.78 98.78 C 675.71 90.18 676.64 79.52 678.00 71.00 C 679.36 62.48 681.95 54.10 682.93 45.93 C 683.90 37.76 684.83 25.23 694.67 25.67 C 704.51 26.11 712.94 22.18 721.00 28.00
M 23.00 35.00 
C 32.89 37.51 29.43 54.97 18.78 52.22 C 8.12 49.47 11.85 32.17 23.00 35.00
M 135.00 35.00 
C 144.58 36.39 143.00 54.55 132.32 52.66 C 121.64 50.77 123.19 33.29 135.00 35.00
M 170.00 35.00 
C 184.39 38.04 179.35 63.51 164.33 59.67 C 149.31 55.83 154.60 31.74 170.00 35.00
M 78.00 39.00 
C 81.63 40.21 79.83 48.03 75.97 46.97 C 72.12 45.91 73.45 37.48 78.00 39.00
M 62.00 42.00 
C 67.64 43.62 65.01 54.38 58.77 52.21 C 52.53 50.05 54.98 39.98 62.00 42.00
M 44.00 52.00 
C 53.85 55.11 47.45 73.45 37.33 68.67 C 27.21 63.89 33.36 48.64 44.00 52.00
M 11.00 59.00 
C 16.65 61.76 11.23 72.49 5.33 68.67 C -0.57 64.85 4.92 56.03 11.00 59.00
M 149.00 59.00 
C 154.20 61.66 149.21 72.48 143.33 68.67 C 137.45 64.86 142.98 55.92 149.00 59.00
M 176.00 66.00 
C 192.43 67.57 190.79 95.91 173.00 94.00 C 155.21 92.09 158.66 64.35 176.00 66.00
M 29.00 73.00 
C 42.91 77.22 34.12 102.97 19.78 96.22 C 5.44 89.47 13.63 68.33 29.00 73.00
M 6.00 77.00 
C 10.07 78.46 7.37 86.55 3.32 84.66 C -0.73 82.78 1.91 75.53 6.00 77.00
M 151.00 77.00 
C 154.36 79.12 151.36 87.12 147.33 84.67 C 143.29 82.21 147.08 74.53 151.00 77.00
M 171.00 102.00 
C 185.86 105.68 177.38 131.79 163.00 126.00 C 148.62 120.21 155.43 98.14 171.00 102.00
M 22.00 105.00 
C 38.29 109.04 30.57 137.95 13.93 132.07 C -2.72 126.20 4.45 100.65 22.00 105.00
M 41.00 115.00 
C 44.90 115.48 44.83 123.65 39.99 122.99 C 35.15 122.33 37.24 114.54 41.00 115.00
M 188.00 115.00 
C 191.74 116.03 190.55 124.21 185.99 122.99 C 181.43 121.77 184.81 114.12 188.00 115.00
M 49.00 130.00 
C 54.85 131.91 51.33 142.30 45.00 140.00 C 38.67 137.70 42.36 127.84 49.00 130.00
M 153.00 130.00 
C 162.44 133.84 155.12 152.06 145.33 146.67 C 135.54 141.28 142.98 125.92 153.00 130.00
M 185.00 130.00 
C 191.41 132.39 186.11 143.39 180.00 140.00 C 173.89 136.60 179.14 127.82 185.00 130.00
M 28.00 141.00 
C 42.42 144.57 35.36 170.37 20.33 164.67 C 5.30 158.97 13.08 137.30 28.00 141.00
M 61.00 146.00 
C 71.17 147.35 68.90 166.03 58.00 164.00 C 47.09 161.97 50.18 144.56 61.00 146.00
M 132.00 146.00 
C 138.12 146.80 136.84 158.21 129.99 156.99 C 123.15 155.77 125.78 145.18 132.00 146.00
M 172.00 146.00 
C 182.35 147.38 179.85 166.21 169.00 164.00 C 158.14 161.79 161.22 144.56 172.00 146.00
M 116.00 153.00 
C 119.68 154.19 118.34 162.51 113.99 160.99 C 109.64 159.47 112.13 151.75 116.00 153.00
M 85.00 160.00 
C 99.05 164.01 93.26 189.00 78.33 184.67 C 63.40 180.34 70.14 155.76 85.00 160.00
M 151.00 160.00 
C 165.09 163.22 160.22 188.72 145.00 185.00 C 129.78 181.28 135.57 156.47 151.00 160.00
M 119.00 167.00 
C 135.64 170.87 127.42 200.70 110.78 194.22 C 94.13 187.74 101.98 163.04 119.00 167.00
M 45.00 168.00 
C 54.16 171.73 46.52 189.76 36.93 184.07 C 27.33 178.39 34.07 163.55 45.00 168.00
M 62.00 184.00 
C 67.89 185.73 64.87 197.54 58.33 194.67 C 51.79 191.79 55.97 182.23 62.00 184.00
M 79.00 190.00 
C 81.94 191.81 79.60 198.98 75.77 197.21 C 71.94 195.45 74.61 187.30 79.00 190.00 Z"/>
</g>
<g fill="None" fill-opacity="0.0" stroke="#FFFFFF" stroke-opacity="0.75" stroke-width="0.3"><path d="
M 117.00 1.00 
C 112.50 -1.77 110.00 6.71 113.75 8.20 C 117.50 9.68 120.01 2.85 117.00 1.00 Z"/>
</g>
<g fill="None" fill-opacity="0.0" stroke="#FFFFFF" stroke-opacity="0.81" stroke-width="0.3"><path d="
M 133.00 4.00 
C 126.92 1.03 121.43 9.85 127.33 13.67 C 133.23 17.49 138.65 6.76 133.00 4.00 Z"/>
</g>
<g fill="None" fill-opacity="0.0" stroke="#FFFFFF" stroke-opacity="0.93" stroke-width="0.3"><path d="
M 82.00 5.00 
C 64.74 -0.24 56.03 24.61 71.98 32.02 C 87.92 39.44 98.21 9.92 82.00 5.00 Z"/>
</g>
<g fill="None" fill-opacity="0.0" stroke="#FFFFFE" stroke-opacity="0.91" stroke-width="0.3"><path d="
M 49.00 14.00 
C 33.34 9.25 25.61 30.53 39.78 37.22 C 53.95 43.91 62.95 18.23 49.00 14.00 Z"/>
</g>
<g fill="None" fill-opacity="0.0" stroke="#FFFFFF" stroke-opacity="0.91" stroke-width="0.3"><path d="
M 115.00 14.00 
C 99.34 9.05 91.50 30.66 105.78 37.22 C 120.06 43.79 128.83 18.37 115.00 14.00 Z"/>
</g>
<g fill="None" fill-opacity="0.0" stroke="#FFFFFF" stroke-opacity="0.89" stroke-width="0.3"><path d="
M 153.00 14.00 
C 141.67 10.22 136.22 24.84 145.93 30.07 C 155.63 35.30 162.16 17.05 153.00 14.00 Z"/>
</g>
<g fill="None" fill-opacity="0.0" stroke="#FFFFFF" stroke-opacity="0.96" stroke-width="0.3"><path d="
M 444.00 22.00 
C 423.03 21.10 403.10 31.66 394.92 50.92 C 386.75 70.19 382.59 93.06 379.33 113.33 C 376.07 133.60 371.48 161.67 387.25 176.75 C 403.01 191.84 426.56 192.21 444.75 180.75 C 462.95 169.30 463.99 147.51 470.07 128.07 C 476.16 108.64 476.77 83.94 479.35 62.69 C 481.94 41.45 466.23 22.95 444.00 22.00
M 411.00 150.00 
C 410.94 149.84 410.00 150.00 410.00 150.00
C 407.82 147.89 409.59 145.00 410.00 143.00
C 412.15 132.42 411.77 120.66 414.06 110.92 C 416.36 101.18 417.56 88.24 420.98 78.98 C 424.39 69.71 421.35 56.51 434.22 53.22 C 447.10 49.94 447.11 68.41 444.07 78.07 C 441.03 87.73 441.31 101.66 439.00 112.00 C 436.69 122.34 433.81 133.94 432.67 144.67 C 431.53 155.40 415.08 161.49 411.00 150.00 Z"/>
</g>
<g fill="None" fill-opacity="0.0" stroke="#FFFFFF" stroke-opacity="0.96" stroke-width="0.3"><path d="
M 825.00 61.00 
C 824.82 57.92 824.68 54.46 825.00 51.00
C 825.74 43.09 823.47 34.11 816.75 29.25 C 810.02 24.40 801.20 23.83 793.00 23.00 C 784.80 22.17 773.98 22.67 766.69 25.69 C 759.41 28.72 754.38 33.14 750.92 39.92 C 747.47 46.71 745.25 54.45 742.98 61.98 C 740.70 69.50 738.77 77.25 737.33 85.33 C 735.89 93.41 734.84 102.83 733.00 111.00 C 731.15 119.16 730.81 128.54 729.98 136.98 C 729.14 145.41 727.92 156.65 730.22 164.78 C 732.53 172.90 737.14 176.80 743.75 181.25 C 750.37 185.69 758.92 186.84 767.00 187.00 C 775.08 187.16 785.76 185.50 792.77 182.77 C 799.78 180.04 803.55 173.79 807.07 168.07 C 810.60 162.36 812.56 150.69 814.02 145.02 C 815.49 139.36 819.67 123.31 812.67 122.33 C 805.67 121.35 791.36 118.80 786.26 122.26 C 781.15 125.71 781.65 139.46 779.77 145.77 C 777.89 152.08 764.72 159.11 761.99 150.01 C 759.27 140.91 763.11 133.04 763.07 124.07 C 763.04 115.11 766.41 107.46 768.00 99.00 C 769.59 90.54 769.88 83.14 773.02 75.02 C 776.17 66.91 773.74 60.23 781.32 53.32 C 788.91 46.41 797.70 61.60 793.78 67.78 C 789.85 73.95 788.26 87.35 795.00 88.00 C 801.74 88.65 816.98 91.16 821.07 86.07 C 825.17 80.99 824.09 67.40 825.00 61.00 Z"/>
</g>
<g fill="None" fill-opacity="0.0" stroke="#FFFFFF" stroke-opacity="0.97" stroke-width="0.3"><path d="
M 337.00 101.00 
C 345.05 98.30 350.86 93.26 355.69 85.69 C 360.53 78.12 360.93 67.17 362.07 58.07 C 363.21 48.98 361.77 40.75 354.25 33.75 C 346.72 26.75 339.95 25.87 329.00 25.00 C 318.05 24.13 308.24 26.95 296.00 25.00 C 283.76 23.05 282.73 34.46 281.33 44.33 C 279.92 54.19 278.43 64.23 276.78 73.78 C 275.13 83.33 272.86 92.81 270.99 101.99 C 269.12 111.18 267.42 120.99 265.78 129.78 C 264.14 138.57 261.62 150.53 260.78 158.78 C 259.94 167.03 251.53 182.23 262.00 184.00 C 272.47 185.77 284.33 183.19 293.98 184.02 C 303.62 184.86 313.00 185.16 321.99 182.99 C 330.99 180.83 337.14 177.34 343.23 170.23 C 349.32 163.12 350.62 154.80 353.02 146.02 C 355.43 137.25 355.17 126.76 352.78 118.22 C 350.38 109.69 343.66 105.53 337.00 101.00
M 306.00 85.00 
C 307.15 73.88 309.64 63.09 311.00 52.00
C 324.67 48.16 331.77 58.13 328.22 69.22 C 324.68 80.32 318.85 87.25 306.00 85.00
M 295.00 155.00 
C 294.41 142.68 298.29 129.31 301.00 117.00
C 316.58 115.59 322.88 124.91 320.22 139.22 C 317.56 153.53 308.30 155.91 295.00 155.00 Z"/>
</g>
<g fill="None" fill-opacity="0.0" stroke="#FFFFFF" stroke-opacity="0.96" stroke-width="0.3"><path d="
M 549.00 26.00 
C 537.76 26.97 526.65 24.28 516.00 26.00
C 514.37 33.59 513.46 41.35 511.98 48.98 C 510.49 56.60 508.97 62.59 508.00 70.00 C 507.03 77.41 506.17 85.81 504.00 93.00 C 501.83 100.18 501.93 108.76 499.93 115.93 C 497.92 123.10 497.43 131.94 495.98 138.98 C 494.52 146.01 491.35 153.96 491.93 160.93 C 492.50 167.89 484.70 176.92 489.10 182.90 C 493.50 188.88 505.96 183.05 513.00 184.00 C 520.04 184.95 531.64 183.73 538.93 184.93 C 546.22 186.12 556.22 181.65 555.01 174.01 C 553.80 166.37 562.41 156.17 555.00 153.00 C 547.59 149.83 536.72 155.38 529.00 153.00
C 532.33 109.47 544.61 68.25 549.00 26.00 Z"/>
</g>
<g fill="None" fill-opacity="0.0" stroke="#FFFFFF" stroke-opacity="0.95" stroke-width="0.3"><path d="
M 602.00 58.00 
C 600.67 67.51 599.59 77.10 597.33 86.33 C 595.07 95.56 594.54 104.82 591.98 113.98 C 589.42 123.13 589.16 130.15 586.78 139.78 C 584.40 149.41 584.94 155.87 582.00 166.00 C 579.05 176.12 578.86 186.03 591.00 184.00 C 603.14 181.97 612.99 186.84 614.00 174.00 C 615.01 161.16 617.43 157.14 619.22 146.22 C 621.01 135.31 622.94 129.56 624.07 119.07 C 625.21 108.59 629.02 102.75 630.02 92.02 C 631.03 81.30 635.04 76.28 635.22 64.22 C 635.41 52.16 651.31 61.87 657.77 57.77 C 664.23 53.66 662.81 39.52 664.22 31.22 C 665.62 22.92 647.48 24.80 639.00 25.00 C 630.52 25.20 615.26 24.93 606.00 25.00 C 596.74 25.07 581.63 21.98 580.92 32.92 C 580.22 43.87 574.83 46.86 577.00 57.00
C 585.52 57.85 593.05 57.97 602.00 58.00 Z"/>
</g>
<g fill="None" fill-opacity="0.0" stroke="#FFFFFF" stroke-opacity="0.95" stroke-width="0.3"><path d="
M 721.00 28.00 
C 712.94 22.18 704.51 26.11 694.67 25.67 C 684.83 25.23 683.90 37.76 682.93 45.93 C 681.95 54.10 679.36 62.48 678.00 71.00 C 676.64 79.52 675.71 90.18 673.78 98.78 C 671.84 107.38 669.93 117.21 668.98 125.98 C 668.03 134.75 664.07 144.39 663.98 152.98 C 663.88 161.56 656.62 171.74 659.03 179.97 C 661.44 188.21 677.36 183.36 686.00 185.00 C 694.64 186.64 696.48 172.09 697.07 164.07 C 697.67 156.05 700.63 145.56 702.00 137.00 C 703.37 128.45 703.35 117.59 706.07 109.07 C 708.80 100.56 709.33 90.97 711.07 82.07 C 712.81 73.18 715.02 64.20 716.07 55.07 C 717.13 45.94 719.95 37.14 721.00 28.00 Z"/>
</g>
<g fill="None" fill-opacity="0.0" stroke="#FFFFFF" stroke-opacity="0.96" stroke-width="0.3"><path d="
M 953.00 28.00 
L 953.00 27.00
C 936.69 21.69 916.95 23.26 908.77 37.77 C 900.59 52.28 893.40 60.93 884.00 74.00
C 885.24 75.87 882.50 76.22 881.00 75.00
C 881.41 74.17 881.97 73.13 883.00 73.00
C 884.83 64.89 886.64 55.03 888.00 47.00 C 889.37 38.98 893.36 25.48 883.02 25.98 C 872.69 26.47 867.25 23.65 857.00 26.00
C 850.98 79.27 837.63 130.67 832.00 184.00
C 840.47 181.25 860.42 189.37 864.07 180.07 C 867.72 170.77 867.16 159.60 870.01 150.01 C 872.86 140.42 871.36 129.05 875.00 120.00
C 881.38 141.43 889.13 162.41 895.00 184.00
C 907.00 184.00 919.00 184.00 931.00 184.00
C 929.27 169.61 919.62 153.79 916.93 140.07 C 914.24 126.36 901.82 109.67 905.70 96.70 C 909.57 83.72 922.82 74.10 929.25 62.25 C 935.67 50.39 946.36 39.65 953.00 28.00 Z"/>
</g>
<g fill="None" fill-opacity="0.0" stroke="#FFFFFF" stroke-opacity="0.87" stroke-width="0.3"><path d="
M 23.00 35.00 
C 11.85 32.17 8.12 49.47 18.78 52.22 C 29.43 54.97 32.89 37.51 23.00 35.00 Z"/>
</g>
<g fill="None" fill-opacity="0.0" stroke="#FFFFFF" stroke-opacity="0.89" stroke-width="0.3"><path d="
M 135.00 35.00 
C 123.19 33.29 121.64 50.77 132.32 52.66 C 143.00 54.55 144.58 36.39 135.00 35.00 Z"/>
</g>
<g fill="None" fill-opacity="0.0" stroke="#FEFFFF" stroke-opacity="0.91" stroke-width="0.3"><path d="
M 170.00 35.00 
C 154.60 31.74 149.31 55.83 164.33 59.67 C 179.35 63.51 184.39 38.04 170.00 35.00 Z"/>
</g>
<g fill="None" fill-opacity="0.0" stroke="#FFFFFF" stroke-opacity="0.73" stroke-width="0.3"><path d="
M 78.00 39.00 
C 73.45 37.48 72.12 45.91 75.97 46.97 C 79.83 48.03 81.63 40.21 78.00 39.00 Z"/>
</g>
<g fill="None" fill-opacity="0.0" stroke="#FFFFFF" stroke-opacity="0.81" stroke-width="0.3"><path d="
M 62.00 42.00 
C 54.98 39.98 52.53 50.05 58.77 52.21 C 65.01 54.38 67.64 43.62 62.00 42.00 Z"/>
</g>
<g fill="None" fill-opacity="0.0" stroke="#FFFFFF" stroke-opacity="0.31" stroke-width="0.3"><path d="
M 825.00 61.00 
C 825.46 57.76 825.31 54.25 825.00 51.00
C 824.68 54.46 824.82 57.92 825.00 61.00 Z"/>
</g>
<g fill="None" fill-opacity="0.0" stroke="#FFFFFF" stroke-opacity="0.87" stroke-width="0.3"><path d="
M 44.00 52.00 
C 33.36 48.64 27.21 63.89 37.33 68.67 C 47.45 73.45 53.85 55.11 44.00 52.00 Z"/>
</g>
<g fill="None" fill-opacity="0.0" stroke="#000000" stroke-opacity="0.00" stroke-width="0.3"><path d="
M 306.00 85.00 
C 318.85 87.25 324.68 80.32 328.22 69.22 C 331.77 58.13 324.67 48.16 311.00 52.00
C 309.64 63.09 307.15 73.88 306.00 85.00 Z"/>
</g>
<g fill="None" fill-opacity="0.0" stroke="#000000" stroke-opacity="0.00" stroke-width="0.3"><path d="
M 410.00 143.00 
C 410.01 144.66 411.45 147.54 411.00 150.00
C 415.08 161.49 431.53 155.40 432.67 144.67 C 433.81 133.94 436.69 122.34 439.00 112.00 C 441.31 101.66 441.03 87.73 444.07 78.07 C 447.11 68.41 447.10 49.94 434.22 53.22 C 421.35 56.51 424.39 69.71 420.98 78.98 C 417.56 88.24 416.36 101.18 414.06 110.92 C 411.77 120.66 412.15 132.42 410.00 143.00 Z"/>
</g>
<g fill="None" fill-opacity="0.0" stroke="#FFFEFF" stroke-opacity="0.80" stroke-width="0.3"><path d="
M 11.00 59.00 
C 4.92 56.03 -0.57 64.85 5.33 68.67 C 11.23 72.49 16.65 61.76 11.00 59.00 Z"/>
</g>
<g fill="None" fill-opacity="0.0" stroke="#FFFFFF" stroke-opacity="0.82" stroke-width="0.3"><path d="
M 149.00 59.00 
C 142.98 55.92 137.45 64.86 143.33 68.67 C 149.21 72.48 154.20 61.66 149.00 59.00 Z"/>
</g>
<g fill="None" fill-opacity="0.0" stroke="#FFFFFE" stroke-opacity="0.93" stroke-width="0.3"><path d="
M 176.00 66.00 
C 158.66 64.35 155.21 92.09 173.00 94.00 C 190.79 95.91 192.43 67.57 176.00 66.00 Z"/>
</g>
<g fill="None" fill-opacity="0.0" stroke="#FFFFFF" stroke-opacity="0.91" stroke-width="0.3"><path d="
M 29.00 73.00 
C 13.63 68.33 5.44 89.47 19.78 96.22 C 34.12 102.97 42.91 77.22 29.00 73.00 Z"/>
</g>
<g fill="None" fill-opacity="0.0" stroke="#FFFFFF" stroke-opacity="0.42" stroke-width="0.3"><path d="
M 884.00 74.00 
C 883.90 74.09 882.97 73.32 883.00 73.00
C 881.97 73.13 881.41 74.17 881.00 75.00
C 882.50 76.22 885.24 75.87 884.00 74.00 Z"/>
</g>
<g fill="None" fill-opacity="0.0" stroke="#FFFFFF" stroke-opacity="0.70" stroke-width="0.3"><path d="
M 6.00 77.00 
C 1.91 75.53 -0.73 82.78 3.32 84.66 C 7.37 86.55 10.07 78.46 6.00 77.00 Z"/>
</g>
<g fill="None" fill-opacity="0.0" stroke="#FFFFFF" stroke-opacity="0.66" stroke-width="0.3"><path d="
M 151.00 77.00 
C 147.08 74.53 143.29 82.21 147.33 84.67 C 151.36 87.12 154.36 79.12 151.00 77.00 Z"/>
</g>
<g fill="None" fill-opacity="0.0" stroke="#FFFFFF" stroke-opacity="0.91" stroke-width="0.3"><path d="
M 171.00 102.00 
C 155.43 98.14 148.62 120.21 163.00 126.00 C 177.38 131.79 185.86 105.68 171.00 102.00 Z"/>
</g>
<g fill="None" fill-opacity="0.0" stroke="#FFFFFF" stroke-opacity="0.92" stroke-width="0.3"><path d="
M 22.00 105.00 
C 4.45 100.65 -2.72 126.20 13.93 132.07 C 30.57 137.95 38.29 109.04 22.00 105.00 Z"/>
</g>
<g fill="None" fill-opacity="0.0" stroke="#FFFFFF" stroke-opacity="0.71" stroke-width="0.3"><path d="
M 41.00 115.00 
C 37.24 114.54 35.15 122.33 39.99 122.99 C 44.83 123.65 44.90 115.48 41.00 115.00 Z"/>
</g>
<g fill="None" fill-opacity="0.0" stroke="#FFFFFF" stroke-opacity="0.75" stroke-width="0.3"><path d="
M 188.00 115.00 
C 184.81 114.12 181.43 121.77 185.99 122.99 C 190.55 124.21 191.74 116.03 188.00 115.00 Z"/>
</g>
<g fill="None" fill-opacity="0.0" stroke="#000000" stroke-opacity="0.00" stroke-width="0.3"><path d="
M 295.00 155.00 
C 308.30 155.91 317.56 153.53 320.22 139.22 C 322.88 124.91 316.58 115.59 301.00 117.00
C 298.29 129.31 294.41 142.68 295.00 155.00 Z"/>
</g>
<g fill="None" fill-opacity="0.0" stroke="#FFFFFF" stroke-opacity="0.83" stroke-width="0.3"><path d="
M 49.00 130.00 
C 42.36 127.84 38.67 137.70 45.00 140.00 C 51.33 142.30 54.85 131.91 49.00 130.00 Z"/>
</g>
<g fill="None" fill-opacity="0.0" stroke="#FFFFFF" stroke-opacity="0.89" stroke-width="0.3"><path d="
M 153.00 130.00 
C 142.98 125.92 135.54 141.28 145.33 146.67 C 155.12 152.06 162.44 133.84 153.00 130.00 Z"/>
</g>
<g fill="None" fill-opacity="0.0" stroke="#FFFFFF" stroke-opacity="0.83" stroke-width="0.3"><path d="
M 185.00 130.00 
C 179.14 127.82 173.89 136.60 180.00 140.00 C 186.11 143.39 191.41 132.39 185.00 130.00 Z"/>
</g>
<g fill="None" fill-opacity="0.0" stroke="#FFFFFF" stroke-opacity="0.91" stroke-width="0.3"><path d="
M 28.00 141.00 
C 13.08 137.30 5.30 158.97 20.33 164.67 C 35.36 170.37 42.42 144.57 28.00 141.00 Z"/>
</g>
<g fill="None" fill-opacity="0.0" stroke="#FFFFFF" stroke-opacity="0.78" stroke-width="0.3"><path d="
M 410.00 150.00 
C 409.69 147.71 410.23 145.30 410.00 143.00
C 409.59 145.00 407.82 147.89 410.00 150.00 Z"/>
</g>
<g fill="None" fill-opacity="0.0" stroke="#FFFFFF" stroke-opacity="0.00" stroke-width="0.3"><path d="
M 410.00 150.00 
C 410.00 150.00 410.94 149.84 411.00 150.00
C 411.45 147.54 410.01 144.66 410.00 143.00
C 410.23 145.30 409.69 147.71 410.00 150.00 Z"/>
</g>
<g fill="None" fill-opacity="0.0" stroke="#FFFFFF" stroke-opacity="0.87" stroke-width="0.3"><path d="
M 61.00 146.00 
C 50.18 144.56 47.09 161.97 58.00 164.00 C 68.90 166.03 71.17 147.35 61.00 146.00 Z"/>
</g>
<g fill="None" fill-opacity="0.0" stroke="#FFFFFF" stroke-opacity="0.81" stroke-width="0.3"><path d="
M 132.00 146.00 
C 125.78 145.18 123.15 155.77 129.99 156.99 C 136.84 158.21 138.12 146.80 132.00 146.00 Z"/>
</g>
<g fill="None" fill-opacity="0.0" stroke="#FFFFFF" stroke-opacity="0.87" stroke-width="0.3"><path d="
M 172.00 146.00 
C 161.22 144.56 158.14 161.79 169.00 164.00 C 179.85 166.21 182.35 147.38 172.00 146.00 Z"/>
</g>
<g fill="None" fill-opacity="0.0" stroke="#FFFFFF" stroke-opacity="0.72" stroke-width="0.3"><path d="
M 116.00 153.00 
C 112.13 151.75 109.64 159.47 113.99 160.99 C 118.34 162.51 119.68 154.19 116.00 153.00 Z"/>
</g>
<g fill="None" fill-opacity="0.0" stroke="#FFFFFF" stroke-opacity="0.91" stroke-width="0.3"><path d="
M 85.00 160.00 
C 70.14 155.76 63.40 180.34 78.33 184.67 C 93.26 189.00 99.05 164.01 85.00 160.00 Z"/>
</g>
<g fill="None" fill-opacity="0.0" stroke="#FFFFFF" stroke-opacity="0.90" stroke-width="0.3"><path d="
M 151.00 160.00 
C 135.57 156.47 129.78 181.28 145.00 185.00 C 160.22 188.72 165.09 163.22 151.00 160.00 Z"/>
</g>
<g fill="None" fill-opacity="0.0" stroke="#FFFFFF" stroke-opacity="0.92" stroke-width="0.3"><path d="
M 119.00 167.00 
C 101.98 163.04 94.13 187.74 110.78 194.22 C 127.42 200.70 135.64 170.87 119.00 167.00 Z"/>
</g>
<g fill="None" fill-opacity="0.0" stroke="#FFFFFF" stroke-opacity="0.88" stroke-width="0.3"><path d="
M 45.00 168.00 
C 34.07 163.55 27.33 178.39 36.93 184.07 C 46.52 189.76 54.16 171.73 45.00 168.00 Z"/>
</g>
<g fill="None" fill-opacity="0.0" stroke="#FFFFFF" stroke-opacity="0.79" stroke-width="0.3"><path d="
M 62.00 184.00 
C 55.97 182.23 51.79 191.79 58.33 194.67 C 64.87 197.54 67.89 185.73 62.00 184.00 Z"/>
</g>
<g fill="None" fill-opacity="0.0" stroke="#FFFFFF" stroke-opacity="0.71" stroke-width="0.3"><path d="
M 79.00 190.00 
C 74.61 187.30 71.94 195.45 75.77 197.21 C 79.60 198.98 81.94 191.81 79.00 190.00 Z"/>
</g>
<g fill="#000000" fill-opacity="0.00" stroke="None">
<path d="
M 0.00 200.00 
L 953.00 200.00
L 953.00 28.00
C 946.36 39.65 935.67 50.39 929.25 62.25 C 922.82 74.10 909.57 83.72 905.70 96.70 C 901.82 109.67 914.24 126.36 916.93 140.07 C 919.62 153.79 929.27 169.61 931.00 184.00
C 919.00 184.00 907.00 184.00 895.00 184.00
C 889.13 162.41 881.38 141.43 875.00 120.00
C 871.36 129.05 872.86 140.42 870.01 150.01 C 867.16 159.60 867.72 170.77 864.07 180.07 C 860.42 189.37 840.47 181.25 832.00 184.00
C 837.63 130.67 850.98 79.27 857.00 26.00
C 867.25 23.65 872.69 26.47 883.02 25.98 C 893.36 25.48 889.37 38.98 888.00 47.00 C 886.64 55.03 884.83 64.89 883.00 73.00
C 882.97 73.32 883.90 74.09 884.00 74.00
C 893.40 60.93 900.59 52.28 908.77 37.77 C 916.95 23.26 936.69 21.69 953.00 27.00
L 953.00 0.00
L 0.00 0.00
L 0.00 200.00
M 117.00 1.00 
C 120.01 2.85 117.50 9.68 113.75 8.20 C 110.00 6.71 112.50 -1.77 117.00 1.00
M 133.00 4.00 
C 138.65 6.76 133.23 17.49 127.33 13.67 C 121.43 9.85 126.92 1.03 133.00 4.00
M 82.00 5.00 
C 98.21 9.92 87.92 39.44 71.98 32.02 C 56.03 24.61 64.74 -0.24 82.00 5.00
M 49.00 14.00 
C 62.95 18.23 53.95 43.91 39.78 37.22 C 25.61 30.53 33.34 9.25 49.00 14.00
M 115.00 14.00 
C 128.83 18.37 120.06 43.79 105.78 37.22 C 91.50 30.66 99.34 9.05 115.00 14.00
M 153.00 14.00 
C 162.16 17.05 155.63 35.30 145.93 30.07 C 136.22 24.84 141.67 10.22 153.00 14.00
M 444.00 22.00 
C 466.23 22.95 481.94 41.45 479.35 62.69 C 476.77 83.94 476.16 108.64 470.07 128.07 C 463.99 147.51 462.95 169.30 444.75 180.75 C 426.56 192.21 403.01 191.84 387.25 176.75 C 371.48 161.67 376.07 133.60 379.33 113.33 C 382.59 93.06 386.75 70.19 394.92 50.92 C 403.10 31.66 423.03 21.10 444.00 22.00
M 825.00 51.00 
C 825.31 54.25 825.46 57.76 825.00 61.00
C 824.09 67.40 825.17 80.99 821.07 86.07 C 816.98 91.16 801.74 88.65 795.00 88.00 C 788.26 87.35 789.85 73.95 793.78 67.78 C 797.70 61.60 788.91 46.41 781.32 53.32 C 773.74 60.23 776.17 66.91 773.02 75.02 C 769.88 83.14 769.59 90.54 768.00 99.00 C 766.41 107.46 763.04 115.11 763.07 124.07 C 763.11 133.04 759.27 140.91 761.99 150.01 C 764.72 159.11 777.89 152.08 779.77 145.77 C 781.65 139.46 781.15 125.71 786.26 122.26 C 791.36 118.80 805.67 121.35 812.67 122.33 C 819.67 123.31 815.49 139.36 814.02 145.02 C 812.56 150.69 810.60 162.36 807.07 168.07 C 803.55 173.79 799.78 180.04 792.77 182.77 C 785.76 185.50 775.08 187.16 767.00 187.00 C 758.92 186.84 750.37 185.69 743.75 181.25 C 737.14 176.80 732.53 172.90 730.22 164.78 C 727.92 156.65 729.14 145.41 729.98 136.98 C 730.81 128.54 731.15 119.16 733.00 111.00 C 734.84 102.83 735.89 93.41 737.33 85.33 C 738.77 77.25 740.70 69.50 742.98 61.98 C 745.25 54.45 747.47 46.71 750.92 39.92 C 754.38 33.14 759.41 28.72 766.69 25.69 C 773.98 22.67 784.80 22.17 793.00 23.00 C 801.20 23.83 810.02 24.40 816.75 29.25 C 823.47 34.11 825.74 43.09 825.00 51.00
M 337.00 101.00 
C 343.66 105.53 350.38 109.69 352.78 118.22 C 355.17 126.76 355.43 137.25 353.02 146.02 C 350.62 154.80 349.32 163.12 343.23 170.23 C 337.14 177.34 330.99 180.83 321.99 182.99 C 313.00 185.16 303.62 184.86 293.98 184.02 C 284.33 183.19 272.47 185.77 262.00 184.00 C 251.53 182.23 259.94 167.03 260.78 158.78 C 261.62 150.53 264.14 138.57 265.78 129.78 C 267.42 120.99 269.12 111.18 270.99 101.99 C 272.86 92.81 275.13 83.33 276.78 73.78 C 278.43 64.23 279.92 54.19 281.33 44.33 C 282.73 34.46 283.76 23.05 296.00 25.00 C 308.24 26.95 318.05 24.13 329.00 25.00 C 339.95 25.87 346.72 26.75 354.25 33.75 C 361.77 40.75 363.21 48.98 362.07 58.07 C 360.93 67.17 360.53 78.12 355.69 85.69 C 350.86 93.26 345.05 98.30 337.00 101.00
M 549.00 26.00 
C 544.61 68.25 532.33 109.47 529.00 153.00
C 536.72 155.38 547.59 149.83 555.00 153.00 C 562.41 156.17 553.80 166.37 555.01 174.01 C 556.22 181.65 546.22 186.12 538.93 184.93 C 531.64 183.73 520.04 184.95 513.00 184.00 C 505.96 183.05 493.50 188.88 489.10 182.90 C 484.70 176.92 492.50 167.89 491.93 160.93 C 491.35 153.96 494.52 146.01 495.98 138.98 C 497.43 131.94 497.92 123.10 499.93 115.93 C 501.93 108.76 501.83 100.18 504.00 93.00 C 506.17 85.81 507.03 77.41 508.00 70.00 C 508.97 62.59 510.49 56.60 511.98 48.98 C 513.46 41.35 514.37 33.59 516.00 26.00
C 526.65 24.28 537.76 26.97 549.00 26.00
M 602.00 58.00 
C 593.05 57.97 585.52 57.85 577.00 57.00
C 574.83 46.86 580.22 43.87 580.92 32.92 C 581.63 21.98 596.74 25.07 606.00 25.00 C 615.26 24.93 630.52 25.20 639.00 25.00 C 647.48 24.80 665.62 22.92 664.22 31.22 C 662.81 39.52 664.23 53.66 657.77 57.77 C 651.31 61.87 635.41 52.16 635.22 64.22 C 635.04 76.28 631.03 81.30 630.02 92.02 C 629.02 102.75 625.21 108.59 624.07 119.07 C 622.94 129.56 621.01 135.31 619.22 146.22 C 617.43 157.14 615.01 161.16 614.00 174.00 C 612.99 186.84 603.14 181.97 591.00 184.00 C 578.86 186.03 579.05 176.12 582.00 166.00 C 584.94 155.87 584.40 149.41 586.78 139.78 C 589.16 130.15 589.42 123.13 591.98 113.98 C 594.54 104.82 595.07 95.56 597.33 86.33 C 599.59 77.10 600.67 67.51 602.00 58.00
M 721.00 28.00 
C 719.95 37.14 717.13 45.94 716.07 55.07 C 715.02 64.20 712.81 73.18 711.07 82.07 C 709.33 90.97 708.80 100.56 706.07 109.07 C 703.35 117.59 703.37 128.45 702.00 137.00 C 700.63 145.56 697.67 156.05 697.07 164.07 C 696.48 172.09 694.64 186.64 686.00 185.00 C 677.36 183.36 661.44 188.21 659.03 179.97 C 656.62 171.74 663.88 161.56 663.98 152.98 C 664.07 144.39 668.03 134.75 668.98 125.98 C 669.93 117.21 671.84 107.38 673.78 98.78 C 675.71 90.18 676.64 79.52 678.00 71.00 C 679.36 62.48 681.95 54.10 682.93 45.93 C 683.90 37.76 684.83 25.23 694.67 25.67 C 704.51 26.11 712.94 22.18 721.00 28.00
M 23.00 35.00 
C 32.89 37.51 29.43 54.97 18.78 52.22 C 8.12 49.47 11.85 32.17 23.00 35.00
M 135.00 35.00 
C 144.58 36.39 143.00 54.55 132.32 52.66 C 121.64 50.77 123.19 33.29 135.00 35.00
M 170.00 35.00 
C 184.39 38.04 179.35 63.51 164.33 59.67 C 149.31 55.83 154.60 31.74 170.00 35.00
M 78.00 39.00 
C 81.63 40.21 79.83 48.03 75.97 46.97 C 72.12 45.91 73.45 37.48 78.00 39.00
M 62.00 42.00 
C 67.64 43.62 65.01 54.38 58.77 52.21 C 52.53 50.05 54.98 39.98 62.00 42.00
M 44.00 52.00 
C 53.85 55.11 47.45 73.45 37.33 68.67 C 27.21 63.89 33.36 48.64 44.00 52.00
M 11.00 59.00 
C 16.65 61.76 11.23 72.49 5.33 68.67 C -0.57 64.85 4.92 56.03 11.00 59.00
M 149.00 59.00 
C 154.20 61.66 149.21 72.48 143.33 68.67 C 137.45 64.86 142.98 55.92 149.00 59.00
M 176.00 66.00 
C 192.43 67.57 190.79 95.91 173.00 94.00 C 155.21 92.09 158.66 64.35 176.00 66.00
M 29.00 73.00 
C 42.91 77.22 34.12 102.97 19.78 96.22 C 5.44 89.47 13.63 68.33 29.00 73.00
M 6.00 77.00 
C 10.07 78.46 7.37 86.55 3.32 84.66 C -0.73 82.78 1.91 75.53 6.00 77.00
M 151.00 77.00 
C 154.36 79.12 151.36 87.12 147.33 84.67 C 143.29 82.21 147.08 74.53 151.00 77.00
M 171.00 102.00 
C 185.86 105.68 177.38 131.79 163.00 126.00 C 148.62 120.21 155.43 98.14 171.00 102.00
M 22.00 105.00 
C 38.29 109.04 30.57 137.95 13.93 132.07 C -2.72 126.20 4.45 100.65 22.00 105.00
M 41.00 115.00 
C 44.90 115.48 44.83 123.65 39.99 122.99 C 35.15 122.33 37.24 114.54 41.00 115.00
M 188.00 115.00 
C 191.74 116.03 190.55 124.21 185.99 122.99 C 181.43 121.77 184.81 114.12 188.00 115.00
M 49.00 130.00 
C 54.85 131.91 51.33 142.30 45.00 140.00 C 38.67 137.70 42.36 127.84 49.00 130.00
M 153.00 130.00 
C 162.44 133.84 155.12 152.06 145.33 146.67 C 135.54 141.28 142.98 125.92 153.00 130.00
M 185.00 130.00 
C 191.41 132.39 186.11 143.39 180.00 140.00 C 173.89 136.60 179.14 127.82 185.00 130.00
M 28.00 141.00 
C 42.42 144.57 35.36 170.37 20.33 164.67 C 5.30 158.97 13.08 137.30 28.00 141.00
M 61.00 146.00 
C 71.17 147.35 68.90 166.03 58.00 164.00 C 47.09 161.97 50.18 144.56 61.00 146.00
M 132.00 146.00 
C 138.12 146.80 136.84 158.21 129.99 156.99 C 123.15 155.77 125.78 145.18 132.00 146.00
M 172.00 146.00 
C 182.35 147.38 179.85 166.21 169.00 164.00 C 158.14 161.79 161.22 144.56 172.00 146.00
M 116.00 153.00 
C 119.68 154.19 118.34 162.51 113.99 160.99 C 109.64 159.47 112.13 151.75 116.00 153.00
M 85.00 160.00 
C 99.05 164.01 93.26 189.00 78.33 184.67 C 63.40 180.34 70.14 155.76 85.00 160.00
M 151.00 160.00 
C 165.09 163.22 160.22 188.72 145.00 185.00 C 129.78 181.28 135.57 156.47 151.00 160.00
M 119.00 167.00 
C 135.64 170.87 127.42 200.70 110.78 194.22 C 94.13 187.74 101.98 163.04 119.00 167.00
M 45.00 168.00 
C 54.16 171.73 46.52 189.76 36.93 184.07 C 27.33 178.39 34.07 163.55 45.00 168.00
M 62.00 184.00 
C 67.89 185.73 64.87 197.54 58.33 194.67 C 51.79 191.79 55.97 182.23 62.00 184.00
M 79.00 190.00 
C 81.94 191.81 79.60 198.98 75.77 197.21 C 71.94 195.45 74.61 187.30 79.00 190.00 Z"/>
</g>
<g fill="#FFFFFF" fill-opacity="0.75" stroke="None">
<path d="
M 117.00 1.00 
C 112.50 -1.77 110.00 6.71 113.75 8.20 C 117.50 9.68 120.01 2.85 117.00 1.00 Z"/>
</g>
<g fill="#FFFFFF" fill-opacity="0.81" stroke="None">
<path d="
M 133.00 4.00 
C 126.92 1.03 121.43 9.85 127.33 13.67 C 133.23 17.49 138.65 6.76 133.00 4.00 Z"/>
</g>
<g fill="#FFFFFF" fill-opacity="0.93" stroke="None">
<path d="
M 82.00 5.00 
C 64.74 -0.24 56.03 24.61 71.98 32.02 C 87.92 39.44 98.21 9.92 82.00 5.00 Z"/>
</g>
<g fill="#FFFFFE" fill-opacity="0.91" stroke="None">
<path d="
M 49.00 14.00 
C 33.34 9.25 25.61 30.53 39.78 37.22 C 53.95 43.91 62.95 18.23 49.00 14.00 Z"/>
</g>
<g fill="#FFFFFF" fill-opacity="0.91" stroke="None">
<path d="
M 115.00 14.00 
C 99.34 9.05 91.50 30.66 105.78 37.22 C 120.06 43.79 128.83 18.37 115.00 14.00 Z"/>
</g>
<g fill="#FFFFFF" fill-opacity="0.89" stroke="None">
<path d="
M 153.00 14.00 
C 141.67 10.22 136.22 24.84 145.93 30.07 C 155.63 35.30 162.16 17.05 153.00 14.00 Z"/>
</g>
<g fill="#FFFFFF" fill-opacity="0.96" stroke="None">
<path d="
M 444.00 22.00 
C 423.03 21.10 403.10 31.66 394.92 50.92 C 386.75 70.19 382.59 93.06 379.33 113.33 C 376.07 133.60 371.48 161.67 387.25 176.75 C 403.01 191.84 426.56 192.21 444.75 180.75 C 462.95 169.30 463.99 147.51 470.07 128.07 C 476.16 108.64 476.77 83.94 479.35 62.69 C 481.94 41.45 466.23 22.95 444.00 22.00
M 411.00 150.00 
C 410.94 149.84 410.00 150.00 410.00 150.00
C 407.82 147.89 409.59 145.00 410.00 143.00
C 412.15 132.42 411.77 120.66 414.06 110.92 C 416.36 101.18 417.56 88.24 420.98 78.98 C 424.39 69.71 421.35 56.51 434.22 53.22 C 447.10 49.94 447.11 68.41 444.07 78.07 C 441.03 87.73 441.31 101.66 439.00 112.00 C 436.69 122.34 433.81 133.94 432.67 144.67 C 431.53 155.40 415.08 161.49 411.00 150.00 Z"/>
</g>
<g fill="#FFFFFF" fill-opacity="0.96" stroke="None">
<path d="
M 825.00 61.00 
C 824.82 57.92 824.68 54.46 825.00 51.00
C 825.74 43.09 823.47 34.11 816.75 29.25 C 810.02 24.40 801.20 23.83 793.00 23.00 C 784.80 22.17 773.98 22.67 766.69 25.69 C 759.41 28.72 754.38 33.14 750.92 39.92 C 747.47 46.71 745.25 54.45 742.98 61.98 C 740.70 69.50 738.77 77.25 737.33 85.33 C 735.89 93.41 734.84 102.83 733.00 111.00 C 731.15 119.16 730.81 128.54 729.98 136.98 C 729.14 145.41 727.92 156.65 730.22 164.78 C 732.53 172.90 737.14 176.80 743.75 181.25 C 750.37 185.69 758.92 186.84 767.00 187.00 C 775.08 187.16 785.76 185.50 792.77 182.77 C 799.78 180.04 803.55 173.79 807.07 168.07 C 810.60 162.36 812.56 150.69 814.02 145.02 C 815.49 139.36 819.67 123.31 812.67 122.33 C 805.67 121.35 791.36 118.80 786.26 122.26 C 781.15 125.71 781.65 139.46 779.77 145.77 C 777.89 152.08 764.72 159.11 761.99 150.01 C 759.27 140.91 763.11 133.04 763.07 124.07 C 763.04 115.11 766.41 107.46 768.00 99.00 C 769.59 90.54 769.88 83.14 773.02 75.02 C 776.17 66.91 773.74 60.23 781.32 53.32 C 788.91 46.41 797.70 61.60 793.78 67.78 C 789.85 73.95 788.26 87.35 795.00 88.00 C 801.74 88.65 816.98 91.16 821.07 86.07 C 825.17 80.99 824.09 67.40 825.00 61.00 Z"/>
</g>
<g fill="#FFFFFF" fill-opacity="0.97" stroke="None">
<path d="
M 337.00 101.00 
C 345.05 98.30 350.86 93.26 355.69 85.69 C 360.53 78.12 360.93 67.17 362.07 58.07 C 363.21 48.98 361.77 40.75 354.25 33.75 C 346.72 26.75 339.95 25.87 329.00 25.00 C 318.05 24.13 308.24 26.95 296.00 25.00 C 283.76 23.05 282.73 34.46 281.33 44.33 C 279.92 54.19 278.43 64.23 276.78 73.78 C 275.13 83.33 272.86 92.81 270.99 101.99 C 269.12 111.18 267.42 120.99 265.78 129.78 C 264.14 138.57 261.62 150.53 260.78 158.78 C 259.94 167.03 251.53 182.23 262.00 184.00 C 272.47 185.77 284.33 183.19 293.98 184.02 C 303.62 184.86 313.00 185.16 321.99 182.99 C 330.99 180.83 337.14 177.34 343.23 170.23 C 349.32 163.12 350.62 154.80 353.02 146.02 C 355.43 137.25 355.17 126.76 352.78 118.22 C 350.38 109.69 343.66 105.53 337.00 101.00
M 306.00 85.00 
C 307.15 73.88 309.64 63.09 311.00 52.00
C 324.67 48.16 331.77 58.13 328.22 69.22 C 324.68 80.32 318.85 87.25 306.00 85.00
M 295.00 155.00 
C 294.41 142.68 298.29 129.31 301.00 117.00
C 316.58 115.59 322.88 124.91 320.22 139.22 C 317.56 153.53 308.30 155.91 295.00 155.00 Z"/>
</g>
<g fill="#FFFFFF" fill-opacity="0.96" stroke="None">
<path d="
M 549.00 26.00 
C 537.76 26.97 526.65 24.28 516.00 26.00
C 514.37 33.59 513.46 41.35 511.98 48.98 C 510.49 56.60 508.97 62.59 508.00 70.00 C 507.03 77.41 506.17 85.81 504.00 93.00 C 501.83 100.18 501.93 108.76 499.93 115.93 C 497.92 123.10 497.43 131.94 495.98 138.98 C 494.52 146.01 491.35 153.96 491.93 160.93 C 492.50 167.89 484.70 176.92 489.10 182.90 C 493.50 188.88 505.96 183.05 513.00 184.00 C 520.04 184.95 531.64 183.73 538.93 184.93 C 546.22 186.12 556.22 181.65 555.01 174.01 C 553.80 166.37 562.41 156.17 555.00 153.00 C 547.59 149.83 536.72 155.38 529.00 153.00
C 532.33 109.47 544.61 68.25 549.00 26.00 Z"/>
</g>
<g fill="#FFFFFF" fill-opacity="0.95" stroke="None">
<path d="
M 602.00 58.00 
C 600.67 67.51 599.59 77.10 597.33 86.33 C 595.07 95.56 594.54 104.82 591.98 113.98 C 589.42 123.13 589.16 130.15 586.78 139.78 C 584.40 149.41 584.94 155.87 582.00 166.00 C 579.05 176.12 578.86 186.03 591.00 184.00 C 603.14 181.97 612.99 186.84 614.00 174.00 C 615.01 161.16 617.43 157.14 619.22 146.22 C 621.01 135.31 622.94 129.56 624.07 119.07 C 625.21 108.59 629.02 102.75 630.02 92.02 C 631.03 81.30 635.04 76.28 635.22 64.22 C 635.41 52.16 651.31 61.87 657.77 57.77 C 664.23 53.66 662.81 39.52 664.22 31.22 C 665.62 22.92 647.48 24.80 639.00 25.00 C 630.52 25.20 615.26 24.93 606.00 25.00 C 596.74 25.07 581.63 21.98 580.92 32.92 C 580.22 43.87 574.83 46.86 577.00 57.00
C 585.52 57.85 593.05 57.97 602.00 58.00 Z"/>
</g>
<g fill="#FFFFFF" fill-opacity="0.95" stroke="None">
<path d="
M 721.00 28.00 
C 712.94 22.18 704.51 26.11 694.67 25.67 C 684.83 25.23 683.90 37.76 682.93 45.93 C 681.95 54.10 679.36 62.48 678.00 71.00 C 676.64 79.52 675.71 90.18 673.78 98.78 C 671.84 107.38 669.93 117.21 668.98 125.98 C 668.03 134.75 664.07 144.39 663.98 152.98 C 663.88 161.56 656.62 171.74 659.03 179.97 C 661.44 188.21 677.36 183.36 686.00 185.00 C 694.64 186.64 696.48 172.09 697.07 164.07 C 697.67 156.05 700.63 145.56 702.00 137.00 C 703.37 128.45 703.35 117.59 706.07 109.07 C 708.80 100.56 709.33 90.97 711.07 82.07 C 712.81 73.18 715.02 64.20 716.07 55.07 C 717.13 45.94 719.95 37.14 721.00 28.00 Z"/>
</g>
<g fill="#FFFFFF" fill-opacity="0.96" stroke="None">
<path d="
M 953.00 28.00 
L 953.00 27.00
C 936.69 21.69 916.95 23.26 908.77 37.77 C 900.59 52.28 893.40 60.93 884.00 74.00
C 885.24 75.87 882.50 76.22 881.00 75.00
C 881.41 74.17 881.97 73.13 883.00 73.00
C 884.83 64.89 886.64 55.03 888.00 47.00 C 889.37 38.98 893.36 25.48 883.02 25.98 C 872.69 26.47 867.25 23.65 857.00 26.00
C 850.98 79.27 837.63 130.67 832.00 184.00
C 840.47 181.25 860.42 189.37 864.07 180.07 C 867.72 170.77 867.16 159.60 870.01 150.01 C 872.86 140.42 871.36 129.05 875.00 120.00
C 881.38 141.43 889.13 162.41 895.00 184.00
C 907.00 184.00 919.00 184.00 931.00 184.00
C 929.27 169.61 919.62 153.79 916.93 140.07 C 914.24 126.36 901.82 109.67 905.70 96.70 C 909.57 83.72 922.82 74.10 929.25 62.25 C 935.67 50.39 946.36 39.65 953.00 28.00 Z"/>
</g>
<g fill="#FFFFFF" fill-opacity="0.87" stroke="None">
<path d="
M 23.00 35.00 
C 11.85 32.17 8.12 49.47 18.78 52.22 C 29.43 54.97 32.89 37.51 23.00 35.00 Z"/>
</g>
<g fill="#FFFFFF" fill-opacity="0.89" stroke="None">
<path d="
M 135.00 35.00 
C 123.19 33.29 121.64 50.77 132.32 52.66 C 143.00 54.55 144.58 36.39 135.00 35.00 Z"/>
</g>
<g fill="#FEFFFF" fill-opacity="0.91" stroke="None">
<path d="
M 170.00 35.00 
C 154.60 31.74 149.31 55.83 164.33 59.67 C 179.35 63.51 184.39 38.04 170.00 35.00 Z"/>
</g>
<g fill="#FFFFFF" fill-opacity="0.73" stroke="None">
<path d="
M 78.00 39.00 
C 73.45 37.48 72.12 45.91 75.97 46.97 C 79.83 48.03 81.63 40.21 78.00 39.00 Z"/>
</g>
<g fill="#FFFFFF" fill-opacity="0.81" stroke="None">
<path d="
M 62.00 42.00 
C 54.98 39.98 52.53 50.05 58.77 52.21 C 65.01 54.38 67.64 43.62 62.00 42.00 Z"/>
</g>
<g fill="#FFFFFF" fill-opacity="0.31" stroke="None">
<path d="
M 825.00 61.00 
C 825.46 57.76 825.31 54.25 825.00 51.00
C 824.68 54.46 824.82 57.92 825.00 61.00 Z"/>
</g>
<g fill="#FFFFFF" fill-opacity="0.87" stroke="None">
<path d="
M 44.00 52.00 
C 33.36 48.64 27.21 63.89 37.33 68.67 C 47.45 73.45 53.85 55.11 44.00 52.00 Z"/>
</g>
<g fill="#000000" fill-opacity="0.00" stroke="None">
<path d="
M 306.00 85.00 
C 318.85 87.25 324.68 80.32 328.22 69.22 C 331.77 58.13 324.67 48.16 311.00 52.00
C 309.64 63.09 307.15 73.88 306.00 85.00 Z"/>
</g>
<g fill="#000000" fill-opacity="0.00" stroke="None">
<path d="
M 410.00 143.00 
C 410.01 144.66 411.45 147.54 411.00 150.00
C 415.08 161.49 431.53 155.40 432.67 144.67 C 433.81 133.94 436.69 122.34 439.00 112.00 C 441.31 101.66 441.03 87.73 444.07 78.07 C 447.11 68.41 447.10 49.94 434.22 53.22 C 421.35 56.51 424.39 69.71 420.98 78.98 C 417.56 88.24 416.36 101.18 414.06 110.92 C 411.77 120.66 412.15 132.42 410.00 143.00 Z"/>
</g>
<g fill="#FFFEFF" fill-opacity="0.80" stroke="None">
<path d="
M 11.00 59.00 
C 4.92 56.03 -0.57 64.85 5.33 68.67 C 11.23 72.49 16.65 61.76 11.00 59.00 Z"/>
</g>
<g fill="#FFFFFF" fill-opacity="0.82" stroke="None">
<path d="
M 149.00 59.00 
C 142.98 55.92 137.45 64.86 143.33 68.67 C 149.21 72.48 154.20 61.66 149.00 59.00 Z"/>
</g>
<g fill="#FFFFFE" fill-opacity="0.93" stroke="None">
<path d="
M 176.00 66.00 
C 158.66 64.35 155.21 92.09 173.00 94.00 C 190.79 95.91 192.43 67.57 176.00 66.00 Z"/>
</g>
<g fill="#FFFFFF" fill-opacity="0.91" stroke="None">
<path d="
M 29.00 73.00 
C 13.63 68.33 5.44 89.47 19.78 96.22 C 34.12 102.97 42.91 77.22 29.00 73.00 Z"/>
</g>
<g fill="#FFFFFF" fill-opacity="0.42" stroke="None">
<path d="
M 884.00 74.00 
C 883.90 74.09 882.97 73.32 883.00 73.00
C 881.97 73.13 881.41 74.17 881.00 75.00
C 882.50 76.22 885.24 75.87 884.00 74.00 Z"/>
</g>
<g fill="#FFFFFF" fill-opacity="0.70" stroke="None">
<path d="
M 6.00 77.00 
C 1.91 75.53 -0.73 82.78 3.32 84.66 C 7.37 86.55 10.07 78.46 6.00 77.00 Z"/>
</g>
<g fill="#FFFFFF" fill-opacity="0.66" stroke="None">
<path d="
M 151.00 77.00 
C 147.08 74.53 143.29 82.21 147.33 84.67 C 151.36 87.12 154.36 79.12 151.00 77.00 Z"/>
</g>
<g fill="#FFFFFF" fill-opacity="0.91" stroke="None">
<path d="
M 171.00 102.00 
C 155.43 98.14 148.62 120.21 163.00 126.00 C 177.38 131.79 185.86 105.68 171.00 102.00 Z"/>
</g>
<g fill="#FFFFFF" fill-opacity="0.92" stroke="None">
<path d="
M 22.00 105.00 
C 4.45 100.65 -2.72 126.20 13.93 132.07 C 30.57 137.95 38.29 109.04 22.00 105.00 Z"/>
</g>
<g fill="#FFFFFF" fill-opacity="0.71" stroke="None">
<path d="
M 41.00 115.00 
C 37.24 114.54 35.15 122.33 39.99 122.99 C 44.83 123.65 44.90 115.48 41.00 115.00 Z"/>
</g>
<g fill="#FFFFFF" fill-opacity="0.75" stroke="None">
<path d="
M 188.00 115.00 
C 184.81 114.12 181.43 121.77 185.99 122.99 C 190.55 124.21 191.74 116.03 188.00 115.00 Z"/>
</g>
<g fill="#000000" fill-opacity="0.00" stroke="None">
<path d="
M 295.00 155.00 
C 308.30 155.91 317.56 153.53 320.22 139.22 C 322.88 124.91 316.58 115.59 301.00 117.00
C 298.29 129.31 294.41 142.68 295.00 155.00 Z"/>
</g>
<g fill="#FFFFFF" fill-opacity="0.83" stroke="None">
<path d="
M 49.00 130.00 
C 42.36 127.84 38.67 137.70 45.00 140.00 C 51.33 142.30 54.85 131.91 49.00 130.00 Z"/>
</g>
<g fill="#FFFFFF" fill-opacity="0.89" stroke="None">
<path d="
M 153.00 130.00 
C 142.98 125.92 135.54 141.28 145.33 146.67 C 155.12 152.06 162.44 133.84 153.00 130.00 Z"/>
</g>
<g fill="#FFFFFF" fill-opacity="0.83" stroke="None">
<path d="
M 185.00 130.00 
C 179.14 127.82 173.89 136.60 180.00 140.00 C 186.11 143.39 191.41 132.39 185.00 130.00 Z"/>
</g>
<g fill="#FFFFFF" fill-opacity="0.91" stroke="None">
<path d="
M 28.00 141.00 
C 13.08 137.30 5.30 158.97 20.33 164.67 C 35.36 170.37 42.42 144.57 28.00 141.00 Z"/>
</g>
<g fill="#FFFFFF" fill-opacity="0.78" stroke="None">
<path d="
M 410.00 150.00 
C 409.69 147.71 410.23 145.30 410.00 143.00
C 409.59 145.00 407.82 147.89 410.00 150.00 Z"/>
</g>
<g fill="#FFFFFF" fill-opacity="0.00" stroke="None">
<path d="
M 410.00 150.00 
C 410.00 150.00 410.94 149.84 411.00 150.00
C 411.45 147.54 410.01 144.66 410.00 143.00
C 410.23 145.30 409.69 147.71 410.00 150.00 Z"/>
</g>
<g fill="#FFFFFF" fill-opacity="0.87" stroke="None">
<path d="
M 61.00 146.00 
C 50.18 144.56 47.09 161.97 58.00 164.00 C 68.90 166.03 71.17 147.35 61.00 146.00 Z"/>
</g>
<g fill="#FFFFFF" fill-opacity="0.81" stroke="None">
<path d="
M 132.00 146.00 
C 125.78 145.18 123.15 155.77 129.99 156.99 C 136.84 158.21 138.12 146.80 132.00 146.00 Z"/>
</g>
<g fill="#FFFFFF" fill-opacity="0.87" stroke="None">
<path d="
M 172.00 146.00 
C 161.22 144.56 158.14 161.79 169.00 164.00 C 179.85 166.21 182.35 147.38 172.00 146.00 Z"/>
</g>
<g fill="#FFFFFF" fill-opacity="0.72" stroke="None">
<path d="
M 116.00 153.00 
C 112.13 151.75 109.64 159.47 113.99 160.99 C 118.34 162.51 119.68 154.19 116.00 153.00 Z"/>
</g>
<g fill="#FFFFFF" fill-opacity="0.91" stroke="None">
<path d="
M 85.00 160.00 
C 70.14 155.76 63.40 180.34 78.33 184.67 C 93.26 189.00 99.05 164.01 85.00 160.00 Z"/>
</g>
<g fill="#FFFFFF" fill-opacity="0.90" stroke="None">
<path d="
M 151.00 160.00 
C 135.57 156.47 129.78 181.28 145.00 185.00 C 160.22 188.72 165.09 163.22 151.00 160.00 Z"/>
</g>
<g fill="#FFFFFF" fill-opacity="0.92" stroke="None">
<path d="
M 119.00 167.00 
C 101.98 163.04 94.13 187.74 110.78 194.22 C 127.42 200.70 135.64 170.87 119.00 167.00 Z"/>
</g>
<g fill="#FFFFFF" fill-opacity="0.88" stroke="None">
<path d="
M 45.00 168.00 
C 34.07 163.55 27.33 178.39 36.93 184.07 C 46.52 189.76 54.16 171.73 45.00 168.00 Z"/>
</g>
<g fill="#FFFFFF" fill-opacity="0.79" stroke="None">
<path d="
M 62.00 184.00 
C 55.97 182.23 51.79 191.79 58.33 194.67 C 64.87 197.54 67.89 185.73 62.00 184.00 Z"/>
</g>
<g fill="#FFFFFF" fill-opacity="0.71" stroke="None">
<path d="
M 79.00 190.00 
C 74.61 187.30 71.94 195.45 75.77 197.21 C 79.60 198.98 81.94 191.81 79.00 190.00 Z"/>
</g>
</svg>